<?xml version="1.0" standalone="no"?>
<!DOCTYPE svg PUBLIC "-//W3C//DTD SVG 20010904//EN"
 "http://www.w3.org/TR/2001/REC-SVG-20010904/DTD/svg10.dtd">
<svg version="1.0" xmlns="http://www.w3.org/2000/svg"
 width="512.000000pt" height="512.000000pt" viewBox="0 0 512.000000 512.000000"
 preserveAspectRatio="xMidYMid meet">
<metadata>
Created by potrace 1.11, written by Peter Selinger 2001-2013
</metadata>
<g transform="translate(0.000000,512.000000) scale(0.100000,-0.100000)"
fill="#000000" stroke="none">
<path d="M0 3295 c0 -1004 2 -1825 5 -1825 2 0 33 20 69 45 77 54 187 95 253
95 59 0 188 -32 242 -60 49 -24 183 -56 271 -64 70 -6 141 -32 177 -65 12 -12
26 -21 31 -21 4 0 16 -17 25 -38 21 -48 8 -106 -31 -139 -42 -35 -139 -88
-227 -122 -44 -18 -84 -36 -89 -42 -6 -5 -24 -9 -42 -9 -17 0 -48 -7 -69 -16
-41 -17 -252 -21 -315 -5 -114 28 -212 106 -263 210 l-32 63 -3 -202 c-2 -178
0 -205 14 -221 22 -24 36 -24 59 1 10 11 26 20 35 20 21 0 60 -41 60 -63 0
-25 -18 -30 -30 -7 -7 13 -21 20 -38 20 -34 0 -52 -16 -52 -48 0 -21 -4 -24
-25 -20 -17 4 -25 1 -25 -8 0 -8 4 -14 9 -14 14 0 41 -29 41 -44 0 -7 -12 -17
-27 -23 l-28 -11 36 -1 c19 -1 41 -7 47 -13 10 -10 15 -10 21 1 6 9 11 10 15
2 4 -6 2 -11 -3 -11 -6 0 -11 -4 -11 -10 0 -12 53 -40 75 -40 10 0 30 -10 47
-21 29 -21 31 -21 60 -4 21 12 33 14 41 6 7 -7 6 -12 -6 -17 -9 -3 -19 -18
-22 -34 -4 -19 -15 -32 -35 -38 -34 -12 -42 -7 -34 24 9 34 -37 61 -74 44 -36
-16 -36 -16 -42 22 -4 28 -10 34 -42 42 -69 17 -68 22 -68 -325 l0 -309 416 0
417 0 -8 53 c-4 28 -8 72 -10 97 -2 25 -9 67 -15 93 -5 27 -8 52 -5 57 3 5 2
27 -4 47 -16 64 -21 133 -11 133 6 0 10 -22 10 -49 0 -28 4 -52 9 -55 4 -3 11
-34 13 -70 3 -35 9 -69 12 -75 14 -21 33 13 38 67 4 46 3 50 -8 33 -8 -11 -11
-26 -8 -34 3 -8 1 -18 -4 -21 -15 -9 -22 33 -11 61 6 16 6 30 0 37 -11 13 6
109 18 101 5 -2 8 6 7 18 -1 18 10 27 54 45 30 13 63 28 73 34 25 12 30 6 19
-23 -11 -32 -4 -59 14 -52 8 3 14 0 14 -7 0 -8 8 -10 21 -7 12 3 18 3 15 0 -3
-3 1 -11 8 -17 8 -6 36 -59 62 -119 25 -59 77 -160 113 -225 l68 -117 246 -3
245 -2 -1 59 c-1 40 3 64 12 73 11 11 13 10 9 -8 -3 -13 0 -21 8 -21 20 0 17
20 -6 50 -11 14 -20 31 -20 39 0 8 -7 23 -15 34 -8 10 -15 27 -15 37 0 9 -4
17 -10 17 -12 0 -13 -15 -1 -38 18 -35 41 -93 41 -102 0 -13 -30 -13 -31 0 -2
12 -2 13 -21 80 -9 30 -26 100 -38 155 -12 55 -25 107 -28 115 -3 8 -7 22 -8
30 -2 8 -6 24 -9 36 -4 13 -1 27 9 37 18 18 21 43 6 52 -5 3 -10 22 -10 41 0
19 -5 34 -10 34 -7 0 -9 -20 -5 -53 4 -43 3 -47 -5 -22 -6 17 -12 44 -14 62
-6 42 -13 53 -37 53 -10 0 -19 5 -19 10 0 6 -12 10 -27 10 -30 0 -93 34 -106
56 -5 8 -12 12 -16 9 -5 -2 -15 3 -22 12 -11 13 -11 17 -1 20 12 5 18 43 6 43
-4 0 -12 -8 -19 -17 -11 -15 -13 -15 -24 6 -9 15 -9 26 -2 34 6 8 6 18 1 27
-8 12 -10 11 -10 -5 -1 -18 -2 -17 -15 5 -19 32 -19 44 0 36 11 -4 15 1 15 19
0 19 4 23 17 18 15 -6 16 -5 3 9 -8 9 -18 14 -21 12 -9 -5 -21 24 -24 59 -1
15 -14 51 -29 81 -14 29 -26 58 -26 64 0 7 -4 12 -10 12 -5 0 -7 -6 -4 -14 3
-7 -2 -16 -10 -19 -21 -8 -20 12 0 35 15 15 15 18 1 23 -9 4 -13 14 -10 28 5
21 5 21 -12 5 -15 -14 -16 -20 -6 -32 7 -8 10 -20 6 -26 -6 -10 -34 29 -50 71
-4 8 -22 24 -41 34 -20 10 -44 32 -55 47 -11 15 -29 28 -39 28 -11 0 -48 16
-83 35 -35 19 -75 35 -89 35 -15 0 -28 5 -30 11 -3 9 -10 9 -27 -1 -18 -9 -33
-10 -60 -2 -20 6 -55 13 -78 17 -24 4 -45 11 -49 16 -3 5 -14 9 -25 9 -21 0
-26 16 -7 22 7 3 3 7 -9 10 -17 5 -20 2 -15 -11 5 -14 4 -14 -11 -2 -9 7 -14
18 -10 24 3 5 1 7 -4 4 -6 -4 -19 3 -29 14 -26 28 -8 54 37 53 68 -1 325 -25
376 -35 28 -6 128 -41 222 -78 102 -41 171 -63 171 -56 0 13 -32 45 -46 45
-17 1 -48 54 -47 80 1 14 -1 19 -4 13 -8 -22 -26 -14 -20 8 4 15 2 19 -9 15
-10 -4 -13 0 -9 17 5 21 -29 76 -41 65 -3 -3 2 -13 11 -21 8 -9 15 -21 15 -27
0 -7 -19 8 -42 32 -27 27 -50 43 -60 40 -26 -5 -22 7 4 18 22 8 22 9 -4 9 -16
1 -31 -6 -37 -16 -10 -17 -10 -17 -11 0 0 9 -7 17 -15 17 -9 0 -12 -6 -9 -15
7 -18 -14 -19 -38 -2 -17 14 -57 15 -76 3 -20 -12 -13 -24 11 -19 21 5 21 5 5
-12 -17 -18 -55 -14 -43 5 8 12 -5 13 -24 1 -18 -12 -5 -31 22 -31 18 -1 16
-4 -13 -20 -28 -15 -56 -19 -132 -20 -72 0 -98 3 -98 13 0 6 33 30 72 52 39
22 107 68 151 103 l80 62 124 0 123 0 91 -83 c142 -129 212 -187 227 -187 20
0 4 20 -68 85 -36 32 -82 76 -102 97 -21 21 -43 38 -49 38 -6 0 -9 7 -6 14 4
11 1 13 -10 9 -13 -5 -15 -2 -10 11 4 10 3 15 -3 11 -6 -4 -22 3 -36 14 -22
17 -23 21 -9 21 10 0 15 3 12 7 -8 7 -81 6 -204 -3 -50 -4 -83 -3 -83 3 0 5
17 28 38 51 l39 42 132 0 133 0 37 -33 c21 -17 78 -67 127 -111 82 -72 182
-146 198 -146 12 0 6 28 -10 41 -27 22 -76 99 -71 112 3 7 8 4 13 -8 14 -35
46 -86 51 -81 3 3 -4 18 -16 34 -12 17 -21 34 -21 39 0 16 -25 63 -34 63 -4 0
-5 -7 -2 -16 3 -9 2 -12 -5 -9 -5 4 -8 14 -5 23 3 10 -4 33 -15 52 -14 24 -19
28 -15 13 6 -33 1 -29 -24 19 -12 23 -29 48 -38 55 -16 11 -16 12 1 13 9 0 17
5 17 10 0 16 -32 11 -45 -7 -8 -11 -18 -14 -31 -8 -10 4 -28 7 -39 6 -17 -2
-17 0 -5 8 11 8 5 11 -27 11 -24 0 -43 -4 -43 -10 0 -5 -8 -10 -18 -10 -10 0
-22 -3 -26 -7 -9 -10 -95 -32 -123 -33 -21 0 -33 24 -15 32 4 2 33 33 65 71
l59 67 168 0 168 0 30 -38 c41 -51 181 -272 230 -363 22 -41 54 -123 72 -184
17 -60 38 -132 46 -160 9 -27 22 -75 31 -105 8 -29 21 -63 29 -74 13 -20 14
-19 14 9 0 25 9 35 51 63 28 17 55 32 59 32 9 0 20 -51 20 -95 0 -17 -18 -74
-41 -126 -23 -52 -61 -147 -85 -212 -24 -65 -53 -134 -64 -152 -18 -29 -19
-34 -5 -37 16 -3 98 -175 192 -402 24 -60 78 -178 118 -263 l74 -153 192 0
c178 0 191 1 186 18 -3 9 -21 61 -41 115 -85 238 -104 421 -71 662 9 61 18
137 21 170 l4 60 -14 -42 c-7 -23 -17 -64 -20 -90 -12 -87 -48 -258 -58 -277
-5 -10 -13 -14 -18 -10 -10 12 -30 130 -30 182 0 23 -4 42 -10 42 -13 0 -13 9
5 -144 9 -72 11 -134 7 -138 -15 -15 -60 56 -107 164 -24 55 -54 111 -65 123
l-22 23 59 89 c33 48 85 133 116 189 31 55 70 114 87 131 37 38 135 86 331
162 85 33 187 74 228 90 41 17 76 29 78 27 2 -2 -10 -31 -27 -64 -34 -68 -39
-99 -10 -63 11 13 20 29 20 35 0 19 62 74 92 81 45 11 44 -16 -2 -133 -23 -59
-54 -156 -68 -217 -26 -106 -27 -121 -26 -400 0 -231 3 -309 17 -385 25 -136
40 -200 46 -205 3 -2 24 27 45 63 37 61 148 217 192 268 11 12 39 46 64 75 56
67 205 234 242 272 28 29 36 43 18 32 -15 -10 -173 -174 -214 -223 -19 -24
-46 -55 -60 -70 -82 -91 -174 -213 -235 -310 -54 -86 -57 -80 -91 198 -38 296
-19 586 51 800 41 126 159 347 179 335 9 -5 26 -95 35 -182 8 -71 25 -85 25
-20 0 64 -35 215 -85 371 -47 147 -57 213 -30 202 10 -4 19 3 26 18 9 19 7 28
-7 44 -16 19 -19 19 -41 5 -12 -8 -23 -11 -23 -6 0 5 15 17 33 27 17 10 45 31
61 45 23 20 28 22 23 8 -4 -10 -7 -21 -7 -23 0 -2 -8 -4 -17 -5 -15 0 -15 -2
2 -8 12 -5 23 -4 27 3 4 6 6 -4 3 -22 -2 -18 -9 -40 -15 -47 -9 -10 -8 -19 0
-35 11 -21 12 -21 31 -4 24 22 24 28 -1 21 -11 -3 -23 -1 -26 5 -3 5 3 12 15
15 12 3 21 11 21 19 0 7 5 16 12 20 7 5 8 3 3 -6 -5 -9 -4 -11 4 -6 15 10 5
26 -17 27 -14 0 -13 2 3 9 11 5 14 9 8 9 -8 1 -5 11 9 26 20 23 23 24 45 10
13 -9 23 -11 23 -6 0 5 -9 13 -20 16 -25 8 -26 23 -2 32 9 4 20 11 24 17 5 7
8 3 8 -8 0 -13 5 -16 17 -12 9 4 21 1 26 -6 6 -10 8 -9 4 3 -3 9 0 22 6 28 9
9 9 14 -1 20 -11 7 -10 9 2 14 9 4 16 11 16 18 0 6 -7 9 -15 5 -8 -3 -15 -1
-15 4 0 6 5 10 10 10 6 0 10 10 10 23 l0 22 -20 -25 c-13 -16 -18 -34 -15 -50
4 -24 4 -24 -6 -4 -9 17 -7 30 6 58 10 20 20 36 24 36 9 0 41 -72 41 -93 0 -8
-6 -18 -12 -21 -7 -3 -5 -4 5 -3 14 1 23 -9 34 -38 8 -22 30 -80 49 -128 l35
-88 -32 -30 c-20 -19 -36 -26 -42 -20 -6 6 -1 13 13 21 21 11 21 12 3 29 -12
12 -20 15 -25 7 -5 -6 -8 -1 -8 12 0 12 -5 22 -11 22 -14 0 -5 -41 22 -97 24
-49 36 -54 45 -18 3 14 10 25 14 25 10 0 1 -40 -13 -58 -7 -9 -7 -16 1 -24 9
-9 12 -7 12 10 0 12 5 22 10 22 6 0 10 -10 10 -22 0 -13 9 -38 21 -57 11 -18
19 -41 17 -50 -2 -9 7 -24 19 -34 13 -10 21 -22 18 -27 -3 -5 -1 -11 5 -15 5
-3 10 -1 10 5 0 7 6 10 13 7 6 -2 11 -11 9 -21 -4 -20 21 -21 38 -1 14 17 5
36 -15 28 -9 -3 -22 0 -30 7 -8 7 -15 9 -15 4 0 -5 -5 -1 -11 9 -12 20 -4 37
16 37 7 0 16 6 19 13 3 6 2 -1 -1 -17 -4 -21 -3 -27 6 -21 8 4 24 -6 42 -26
28 -32 28 -33 9 -46 -11 -8 -20 -21 -20 -29 0 -19 9 -18 29 5 16 19 18 18 66
-27 l50 -46 2 -79 c2 -93 11 -140 24 -131 5 3 16 -11 24 -30 14 -32 45 -51 45
-27 0 16 124 111 192 146 119 63 123 62 358 -55 113 -56 209 -107 213 -113 4
-7 6 -50 4 -97 -4 -84 -37 -205 -86 -313 -11 -23 -28 -64 -39 -92 -45 -112
-88 -211 -99 -230 -11 -19 -17 -14 -100 66 -154 149 -236 192 -375 193 l-87 1
37 69 c51 94 143 196 232 257 90 62 92 63 60 54 -26 -7 -80 -41 -138 -85 -40
-31 -142 -152 -173 -206 -20 -35 -104 -203 -186 -373 -17 -34 -33 -59 -37 -53
-8 13 27 207 53 296 24 82 21 96 -7 33 -28 -63 -60 -207 -68 -307 -3 -47 -12
-96 -19 -110 -8 -14 -70 -101 -139 -195 -92 -126 -121 -171 -109 -174 18 -3
16 -5 119 130 128 169 166 232 259 425 l93 191 46 17 c85 32 213 -3 326 -90
91 -69 180 -164 180 -192 0 -8 -35 -78 -79 -156 -64 -115 -154 -283 -169 -318
-2 -5 156 -8 352 -8 l356 0 0 2560 0 2560 -2560 0 -2560 0 0 -1825z m2710
1111 c0 -2 -7 -7 -16 -10 -8 -3 -12 -2 -9 4 6 10 25 14 25 6z m580 -512 c0 -7
-7 -14 -15 -18 -22 -8 -18 -21 11 -35 25 -11 26 -10 22 14 -5 25 -5 25 16 8
41 -35 46 -42 56 -68 6 -16 16 -25 24 -22 7 3 26 -5 42 -19 28 -22 28 -23 7
-24 -13 0 -23 6 -23 14 0 9 -7 12 -18 9 -10 -2 -24 2 -31 11 -10 12 -17 13
-39 3 -15 -6 -31 -17 -35 -24 -5 -8 -13 -10 -19 -7 -6 4 -8 3 -5 -4 4 -5 4
-18 1 -27 -6 -14 -8 -13 -18 7 -9 18 -9 26 0 35 7 7 10 22 7 34 -4 14 -8 17
-13 9 -16 -26 -20 11 -9 79 10 62 14 69 25 53 7 -9 14 -22 14 -28z m-690 -114
c0 -5 -5 -10 -11 -10 -5 0 -7 5 -4 10 3 6 8 10 11 10 2 0 4 -4 4 -10z m339
-35 c27 -13 77 -51 112 -85 35 -33 67 -60 71 -60 5 0 30 -16 57 -35 44 -32 50
-34 62 -19 8 10 19 41 25 71 9 48 9 53 -8 53 -12 0 -18 7 -18 21 0 19 2 20 16
8 9 -7 29 -12 45 -10 34 3 84 -25 153 -86 54 -48 61 -50 87 -27 17 15 19 15
36 -1 13 -14 18 -15 22 -4 2 7 -1 15 -8 17 -21 7 -66 62 -66 81 0 8 -7 16 -15
18 -13 4 -13 3 0 -6 8 -6 10 -11 4 -11 -6 0 -21 11 -34 25 l-23 25 21 0 c12 0
22 -4 22 -9 0 -5 12 -14 28 -20 49 -21 67 -36 64 -53 -2 -10 -8 -18 -14 -18
-6 0 -9 -3 -5 -6 3 -3 7 -5 9 -3 1 1 13 -3 24 -9 20 -11 21 -18 18 -124 -5
-137 8 -235 46 -348 34 -103 47 -189 26 -171 -12 10 -15 3 -18 -41 -5 -56 0
-78 12 -58 4 6 6 -5 5 -25 -1 -20 -6 -39 -10 -43 -5 -4 -5 -1 0 7 5 9 4 12 -3
7 -7 -4 -13 -19 -13 -34 -1 -18 -3 -21 -6 -9 -3 11 -11 16 -19 13 -8 -3 -14 1
-14 9 0 9 6 12 18 9 14 -5 14 -4 2 4 -8 6 -17 9 -22 6 -10 -7 -28 -75 -22 -86
3 -4 1 -8 -4 -8 -19 0 -21 -31 -5 -50 12 -14 19 -16 24 -8 5 7 12 9 16 4 4 -4
-1 -14 -11 -22 -17 -12 -21 -11 -39 9 -15 16 -19 18 -14 5 4 -10 3 -18 -2 -18
-9 0 -22 -31 -26 -62 -3 -21 12 -45 22 -35 4 5 3 11 -3 15 -11 8 -12 27 -1 38
4 4 7 -2 7 -14 0 -12 4 -22 9 -22 5 0 11 -8 13 -17 5 -22 -34 -102 -40 -84 -2
7 1 24 9 37 11 21 10 26 -7 39 -10 8 -22 15 -26 15 -12 0 -10 -58 2 -62 6 -2
4 -15 -5 -32 -19 -35 -19 -40 0 -32 9 3 15 0 15 -9 0 -16 -9 -18 -34 -9 -18 7
-22 39 -6 49 12 7 13 25 2 25 -14 0 -31 -67 -20 -78 12 -12 -14 -67 -38 -80
-13 -8 -14 -13 -4 -31 10 -19 9 -26 -6 -42 -9 -10 -24 -19 -32 -19 -9 0 -12
-3 -9 -7 10 -10 -74 -83 -95 -83 -10 0 -21 -7 -24 -15 -4 -8 -11 -15 -18 -15
-6 0 -32 -11 -58 -24 -51 -26 -203 -52 -238 -41 -12 4 -46 8 -76 8 -32 1 -58
7 -63 15 -4 7 -15 10 -24 7 -21 -9 -57 12 -57 32 0 11 -3 13 -13 5 -8 -7 -18
-6 -32 4 -16 12 -17 18 -8 33 15 24 4 36 -13 13 -12 -16 -15 -16 -41 -2 -37
21 -40 44 -9 71 14 13 26 27 26 33 0 5 -13 -2 -28 -17 -36 -35 -44 -34 -78 5
-37 45 -62 107 -75 187 -14 86 -6 126 67 318 140 372 239 670 294 891 22 88
38 132 47 132 8 0 36 -11 62 -25z m1126 -617 c-15 -132 -16 -137 -30 -131 -19
7 -32 -26 -16 -37 9 -5 -7 -28 -52 -74 -61 -62 -87 -79 -87 -57 0 6 -12 4 -27
-4 -20 -11 -30 -11 -40 -3 -10 8 -17 8 -25 0 -14 -14 -11 -17 20 -26 14 -5 22
-3 22 4 0 6 4 9 9 5 5 -3 12 -1 16 5 8 13 25 13 25 0 0 -5 -7 -10 -15 -10 -8
0 -15 -4 -15 -10 0 -5 -6 -10 -14 -10 -8 0 -16 -6 -19 -14 -7 -18 -38 -25 -66
-14 -19 7 -21 11 -11 23 6 7 19 11 28 8 15 -4 15 -3 2 6 -8 6 -11 11 -6 11 4
0 -1 8 -12 18 -11 9 -23 28 -27 42 -6 24 -5 24 9 6 9 -11 16 -26 16 -33 0 -21
22 -15 51 13 15 14 33 24 41 21 9 -4 5 -8 -9 -12 -13 -4 -23 -11 -23 -16 0
-13 8 -11 41 8 26 16 31 16 39 3 11 -17 13 -9 4 14 -3 8 -12 12 -20 9 -8 -3
-14 -2 -13 3 3 21 -2 28 -11 14 -5 -8 -11 -12 -14 -10 -2 3 2 14 10 24 11 16
16 17 29 6 12 -10 18 -10 29 -1 18 15 17 51 -1 44 -18 -7 -17 1 13 57 27 51
40 65 29 31 -3 -11 -1 -22 5 -26 5 -3 8 -16 6 -28 -13 -64 -15 -87 -6 -87 18
0 48 41 48 67 0 14 4 28 9 32 6 3 13 16 17 29 4 12 10 22 14 22 4 0 7 12 8 28
1 37 14 102 20 102 2 0 2 -24 -1 -52z m-167 -197 c3 -8 -1 -12 -9 -9 -7 2 -15
10 -17 17 -3 8 1 12 9 9 7 -2 15 -10 17 -17z m-187 -38 c-9 -16 -10 -15 -11 8
0 14 3 29 8 33 12 12 14 -22 3 -41z m-20 -166 c-13 -13 -15 11 -4 40 7 16 8
15 11 -6 2 -13 -1 -28 -7 -34z m-27 -2 c20 -30 22 -52 4 -37 -13 10 -19 12
-37 12 -5 0 -12 7 -15 16 -4 11 -2 15 8 11 10 -4 13 -1 9 9 -9 23 13 16 31
-11z m-1788 -66 c92 -28 150 -59 200 -106 l42 -38 -4 -69 c-4 -64 -15 -100
-50 -169 -8 -16 -14 -34 -14 -41 0 -7 -15 -33 -33 -57 -18 -24 -41 -61 -51
-81 -9 -21 -21 -38 -26 -38 -6 0 -10 -5 -10 -11 0 -5 -27 -36 -59 -68 l-59
-58 -38 60 c-21 33 -43 65 -49 71 -7 6 -18 23 -25 36 -20 38 -103 163 -121
183 -14 15 -38 18 -196 20 -154 2 -184 0 -199 -14 -11 -9 -26 -14 -34 -12 -11
3 -12 2 -3 -4 10 -7 10 -13 0 -28 -13 -17 -15 -17 -45 5 -32 24 -28 39 10 40
9 0 18 4 20 10 8 23 162 52 278 52 114 -1 151 -5 325 -38 100 -19 180 -20 201
-3 23 19 17 94 -10 138 -47 74 -152 135 -250 146 -11 1 -45 3 -74 4 -48 1 -53
3 -47 20 8 25 -9 35 -35 21 -26 -14 -25 -26 3 -34 17 -5 6 -11 -49 -26 -39
-10 -99 -32 -132 -49 -34 -17 -65 -31 -69 -31 -13 0 61 59 75 60 6 0 12 4 12
8 0 12 155 92 220 114 70 23 196 18 296 -13z m1724 -67 c0 -12 3 -13 12 -4 22
22 29 12 12 -19 -18 -35 -29 -30 -39 20 -5 23 -4 31 4 27 6 -4 11 -15 11 -24z
m-1910 -33 c134 -31 230 -111 230 -194 0 -55 -11 -64 -68 -53 -361 63 -469 71
-603 43 -40 -9 -74 -13 -76 -11 -12 12 27 55 103 116 33 25 129 66 204 86 94
26 143 29 210 13z m592 -121 c-2 -24 -4 -49 -5 -57 -1 -8 -15 5 -31 29 -27 41
-28 44 -10 57 35 26 50 17 46 -29z m1337 -63 c1 -6 -8 -11 -19 -11 -23 0 -24
3 -7 39 12 26 12 26 19 4 3 -12 6 -27 7 -32z m-120 -37 c-7 -13 -14 -18 -16
-11 -3 7 1 22 8 35 7 13 14 18 16 11 3 -7 -1 -22 -8 -35z m71 -10 c0 -21 -3
-29 -10 -22 -5 5 -7 19 -4 32 9 31 14 27 14 -10z m-1240 -13 c6 -17 17 -25 34
-25 39 0 64 -83 25 -86 -8 0 -25 -2 -38 -2 -21 -2 -23 -5 -17 -37 7 -37 -5
-50 -39 -43 -13 2 -10 13 16 66 27 57 29 65 16 80 -15 17 -21 35 -18 60 2 19
11 14 21 -13z m-1390 -6 c14 -11 55 -40 93 -65 41 -27 67 -51 67 -62 0 -17
-60 -62 -60 -45 0 4 -4 2 -9 -6 -6 -10 -17 -11 -37 -6 -28 8 -28 8 -6 14 20 5
18 8 -23 30 -47 25 -74 22 -39 -4 22 -17 12 -20 -17 -5 -10 6 -19 19 -19 28 0
10 -13 26 -30 35 -26 16 -30 16 -30 3 0 -9 9 -16 20 -16 23 0 27 -15 5 -24 -8
-3 -15 -1 -15 4 0 15 -41 33 -51 23 -14 -14 1 -43 21 -43 11 0 21 -4 24 -9 4
-5 -4 -7 -16 -4 -23 5 -23 5 -3 -12 l20 -17 -20 8 c-11 4 -35 9 -52 12 -38 5
-41 19 -14 77 20 45 38 62 90 86 48 23 71 23 101 -2z m2533 -19 c-3 -11 -9
-20 -14 -20 -10 0 -11 12 -3 34 9 22 23 10 17 -14z m77 -52 c0 -5 -6 -8 -12
-8 -7 0 -23 -17 -35 -38 -14 -23 -22 -31 -23 -19 0 9 -5 17 -11 17 -6 0 -8 -7
-4 -17 5 -14 4 -15 -6 -6 -10 10 -9 16 1 28 10 12 15 13 21 4 5 -8 10 -5 18 9
8 15 8 21 -2 25 -8 3 -7 10 7 25 18 21 20 21 32 4 7 -9 14 -20 14 -24z m-2773
-128 c43 -17 88 -35 101 -40 50 -21 13 -73 -64 -90 -32 -7 -35 -6 -31 11 5 19
1 21 -100 34 -95 11 -123 17 -123 26 0 13 103 89 122 89 9 0 52 -14 95 -30z
m113 0 c0 -5 -4 -10 -10 -10 -5 0 -10 5 -10 10 0 6 5 10 10 10 6 0 10 -4 10
-10z m1433 -31 c-28 -18 -33 -27 -33 -61 0 -35 -2 -39 -16 -28 -24 21 -15 82
16 97 14 7 34 13 45 13 16 0 14 -4 -12 -21z m37 -29 c0 -5 -4 -10 -10 -10 -5
0 -10 5 -10 10 0 6 5 10 10 10 6 0 10 -4 10 -10z m-17 -50 c-3 -11 -9 -20 -13
-20 -10 0 -18 41 -12 60 7 21 31 -17 25 -40z m1557 24 c-62 -11 -89 -11 -59 1
28 10 104 22 114 16 5 -3 -20 -10 -55 -17z m-1650 -41 c0 -13 -3 -23 -7 -23
-5 0 -18 -3 -30 -6 -20 -6 -23 -2 -23 22 0 15 8 36 17 46 16 18 18 18 30 2 7
-10 13 -28 13 -41z m-1635 21 c28 -8 64 -14 80 -14 17 0 36 -5 43 -12 16 -16
-14 -64 -50 -79 -40 -16 -190 -6 -223 15 -24 16 -28 16 -51 1 -29 -18 -30 -22
-6 -21 9 1 17 -3 17 -9 0 -5 -6 -9 -12 -9 -7 1 -10 -2 -7 -7 3 -5 23 -9 45 -9
21 0 39 -4 39 -10 0 -11 -28 -13 -81 -4 -31 5 -36 10 -37 34 -1 37 48 75 78
60 11 -5 29 -15 40 -20 13 -7 20 -7 20 0 0 5 -14 13 -32 18 -17 4 -33 13 -35
19 -7 20 77 74 101 67 12 -4 44 -13 71 -20z m3165 -55 c0 -5 -7 -9 -15 -9 -15
0 -20 12 -9 23 8 8 24 -1 24 -14z m-1417 -21 c-3 -17 -17 -51 -31 -75 -22 -39
-27 -43 -56 -40 -29 3 -31 6 -34 49 l-3 46 53 25 c72 34 79 34 71 -5z m-193 8
c0 -14 -24 -66 -30 -66 -18 0 -22 24 -7 35 10 7 17 17 17 24 0 6 5 11 10 11 6
0 10 -2 10 -4z m-1337 -12 c-7 -3 -10 -11 -7 -18 9 -22 -204 -153 -232 -142
-25 10 -15 24 22 30 31 6 74 36 74 52 0 10 44 43 58 44 6 0 12 5 12 10 0 6 7
10 15 10 8 0 15 -4 15 -10 0 -5 5 -10 11 -10 6 0 8 9 4 20 -5 16 -2 20 17 19
13 0 18 -3 11 -5z m2946 -20 c-15 -18 -22 -13 -13 10 3 9 10 13 16 10 5 -3 4
-12 -3 -20z m25 -51 c-3 -22 -2 -24 4 -9 7 17 11 15 30 -18 27 -46 28 -70 2
-36 -15 19 -20 21 -20 8 0 -9 6 -18 13 -21 8 -3 7 -10 -7 -23 -17 -17 -18 -17
-13 -1 4 9 -2 32 -12 50 -24 44 -31 75 -17 80 18 7 24 -1 20 -30z m-1699 7
c17 -19 17 -21 -9 -58 -14 -21 -26 -43 -26 -49 0 -26 -27 -38 -74 -35 l-47 4
20 32 c12 19 31 33 48 36 23 4 31 13 41 48 16 47 21 50 47 22z m59 -61 c-3 -5
-11 -9 -17 -9 -7 0 -22 -15 -34 -33 -13 -17 -23 -26 -23 -18 0 7 14 29 30 48
17 18 30 41 31 51 0 12 3 10 10 -6 5 -13 7 -28 3 -33z m206 45 c0 -3 -9 -17
-20 -31 -21 -27 -27 -15 -10 18 10 18 30 27 30 13z m-1917 -31 c71 -4 97 -9
97 -19 0 -19 -49 -49 -74 -47 -12 2 -15 0 -8 -3 10 -5 10 -9 1 -20 -16 -20
-40 -18 -37 3 2 13 -5 18 -32 19 -19 1 -56 7 -82 13 -56 12 -85 6 -67 -15 10
-13 6 -18 -13 -15 -5 0 -8 -9 -8 -22 0 -13 -5 -28 -12 -35 -8 -8 -9 -12 -1
-12 6 0 13 6 16 13 3 9 7 9 18 0 8 -6 28 -13 44 -16 22 -3 17 -4 -17 -6 -26 0
-50 -5 -53 -11 -3 -5 -12 -10 -19 -10 -10 0 -11 13 -5 53 9 62 16 83 42 121
18 26 23 28 66 22 25 -3 90 -9 144 -13z m1840 -47 c13 -10 16 -21 11 -40 -7
-28 -24 -36 -24 -10 0 9 -9 18 -20 21 -22 6 -27 29 -7 36 18 8 20 8 40 -7z
m-1958 -26 c3 -5 -3 -10 -14 -10 -12 0 -21 -4 -21 -8 0 -5 -7 -9 -15 -9 -8 0
-15 4 -15 9 0 4 7 8 15 8 8 0 15 5 15 10 0 6 6 10 14 10 8 0 18 -4 21 -10z
m249 4 c22 -9 20 -24 -3 -24 -21 0 -34 13 -24 24 8 7 8 7 27 0z m-174 -30 c0
-2 -13 -4 -30 -4 -16 0 -30 4 -30 8 0 5 14 7 30 4 17 -2 30 -6 30 -8z m1840
-24 c0 -5 -7 -10 -16 -10 -8 0 -12 5 -9 10 3 6 10 10 16 10 5 0 9 -4 9 -10z
m-1745 -70 c6 -10 -2 -11 -41 -6 -112 17 -120 29 -34 55 l55 17 6 -26 c3 -15
9 -33 14 -40z m1530 60 c-3 -5 -22 -10 -41 -10 -21 0 -33 4 -29 10 3 6 22 10
41 10 21 0 33 -4 29 -10z m265 -20 c0 -5 -5 -10 -11 -10 -5 0 -7 5 -4 10 3 6
8 10 11 10 2 0 4 -4 4 -10z m-100 -20 c0 -13 -40 -13 -60 0 -11 7 -5 10 23 10
20 0 37 -4 37 -10z m90 -18 c0 -10 -69 -73 -97 -90 -32 -17 -29 -4 7 30 17 15
30 33 30 39 0 5 4 8 9 5 5 -3 14 1 21 9 13 16 30 20 30 7z m-136 -22 c6 -6 3
-17 -9 -30 -19 -21 -14 -20 -155 -5 -14 1 -31 3 -37 4 -7 0 -13 8 -13 16 0 11
12 15 43 16 23 1 53 4 67 8 30 9 91 4 104 -9z m-29 -114 c-16 -14 -52 -36 -79
-51 -39 -21 -51 -24 -57 -13 -13 20 -11 38 6 38 7 0 18 7 23 15 4 9 19 17 31
20 13 2 26 7 29 10 3 3 21 5 41 5 l36 0 -30 -24z m-835 -278 c0 -10 5 -18 10
-18 6 0 10 -8 8 -17 -2 -11 2 -17 10 -15 14 2 12 -47 -2 -51 -6 -1 -56 104
-56 118 0 1 7 2 15 2 8 0 15 -9 15 -19z m51 -171 c-8 -8 -11 -7 -11 5 0 9 -3
25 -6 35 -5 13 -1 11 11 -5 13 -18 14 -27 6 -35z m-136 14 c-6 -5 -23 -7 -40
-4 l-30 6 30 13 c31 13 58 3 40 -15z m-131 -65 c-8 -20 -34 -29 -34 -12 0 13
13 23 32 25 4 1 5 -5 2 -13z m246 -47 c0 -9 -17 -35 -38 -58 l-37 -41 -30 26
c-19 16 -38 24 -53 21 l-23 -4 23 24 c18 20 30 24 57 19 28 -4 37 0 59 25 25
31 41 26 42 -12z m-314 -14 c-14 -22 -24 -25 -69 -25 l-52 1 24 19 c13 11 28
20 35 21 37 3 57 6 63 12 15 16 14 -4 -1 -28z m354 -65 c0 -13 -51 -50 -61
-44 -15 9 10 44 26 38 11 -5 13 -2 9 10 -5 12 -2 15 10 10 9 -3 16 -10 16 -14z
m-160 -10 c0 -19 -44 -60 -65 -60 -12 0 -34 -13 -50 -30 -16 -16 -39 -30 -52
-30 -33 0 -28 13 15 35 20 11 57 36 82 57 44 37 70 48 70 28z m-873 -53 c26
-24 38 -29 67 -25 34 4 35 3 22 -17 -23 -35 -56 -30 -108 20 -27 24 -48 49
-48 54 0 16 32 1 67 -32z m473 31 c0 -11 -57 -48 -73 -48 -26 0 -47 12 -47 26
0 8 5 15 10 15 6 1 14 2 19 3 5 0 12 4 15 7 8 8 76 6 76 -3z m290 2 c0 -5 -7
-10 -16 -10 -8 0 -12 5 -9 10 3 6 10 10 16 10 5 0 9 -4 9 -10z m1237 -90 c56
-114 93 -229 93 -288 0 -64 -16 -149 -47 -247 -35 -115 -44 -135 -55 -129 -20
12 -228 473 -228 504 0 15 21 46 133 198 21 29 44 52 50 50 7 -2 31 -42 54
-88z m-1800 64 c9 -23 -8 -32 -50 -27 -42 6 -45 23 -6 34 39 11 49 10 56 -7z
m757 7 c4 -5 -11 -19 -31 -32 -21 -12 -54 -32 -73 -45 -19 -13 -53 -30 -75
-39 l-40 -16 24 21 c13 11 29 20 37 20 8 0 14 6 14 13 0 12 53 47 73 47 7 0
23 9 37 20 29 23 27 22 34 11z m-399 -20 c3 -6 -14 -48 -37 -95 l-42 -86 -56
6 c-60 7 -210 41 -219 50 -3 3 5 14 19 25 14 11 41 35 60 53 35 32 37 33 76
21 22 -6 49 -8 61 -4 17 6 19 4 15 -17 -4 -20 0 -24 19 -24 32 1 63 25 56 45
-4 8 -16 15 -27 15 -12 0 -18 5 -15 10 8 13 82 13 90 1z m45 -81 c0 -12 -50
-50 -66 -50 -16 0 -7 30 14 45 17 14 52 17 52 5z m120 -34 c0 -14 -74 -56 -98
-56 -21 0 -1 28 24 34 14 4 27 13 30 21 8 19 44 20 44 1z m-970 -71 c7 -8 10
-22 6 -31 -11 -29 12 -54 49 -54 26 0 33 3 29 15 -7 18 7 20 24 3 16 -16 -3
-48 -29 -48 -22 0 -139 75 -139 90 0 38 36 53 60 25z m400 -5 c0 -5 -5 -10
-11 -10 -5 0 -7 5 -4 10 3 6 8 10 11 10 2 0 4 -4 4 -10z m420 -10 c-14 -11
-41 -25 -60 -31 -19 -6 -39 -15 -45 -19 -5 -3 -32 -14 -60 -24 -27 -10 -60
-22 -72 -28 -13 -6 -25 -9 -28 -6 -3 2 20 17 50 33 30 15 55 34 55 41 0 8 11
14 26 14 14 0 40 6 57 14 28 13 56 20 92 24 6 1 -1 -7 -15 -18z m-192 -17 c-5
-27 -87 -64 -125 -57 -23 4 -40 0 -61 -15 -24 -17 -38 -19 -81 -14 -42 5 -54
10 -61 29 -5 12 -14 25 -19 29 -6 3 -11 11 -11 18 0 8 3 8 12 -1 7 -7 29 -12
50 -12 21 0 47 -5 57 -12 15 -9 31 -8 75 6 31 10 59 22 62 28 4 5 21 7 39 4
19 -4 36 -2 40 4 10 16 27 11 23 -7z m340 -46 c2 -12 -1 -15 -12 -11 -19 7
-22 38 -3 32 6 -3 13 -12 15 -21z m-222 -43 c-3 -9 -6 -32 -6 -51 0 -49 -7
-38 -12 20 -4 37 -2 47 10 47 9 0 12 -6 8 -16z m-508 -16 c-6 -16 -34 -22 -56
-12 -14 6 -13 8 8 14 38 12 52 11 48 -2z"/>
<path d="M3292 3800 c0 -14 2 -19 5 -12 2 6 2 18 0 25 -3 6 -5 1 -5 -13z"/>
<path d="M3345 3800 c-3 -5 -2 -10 4 -10 5 0 13 5 16 10 3 6 2 10 -4 10 -5 0
-13 -4 -16 -10z"/>
<path d="M3540 3659 c0 -5 5 -7 10 -4 6 3 10 8 10 11 0 2 -4 4 -10 4 -5 0 -10
-5 -10 -11z"/>
<path d="M2909 3562 c-60 -39 -83 -67 -74 -89 7 -16 9 -15 14 7 7 28 92 90
123 90 10 0 30 -12 43 -26 14 -15 25 -22 25 -15 0 19 -47 61 -68 61 -10 0 -38
-13 -63 -28z"/>
<path d="M3050 3492 c-49 -104 -87 -150 -131 -159 -16 -3 -32 -10 -36 -16 -4
-6 7 -7 31 -3 21 4 36 3 36 -3 0 -13 -64 -97 -112 -147 -49 -51 -46 -68 21
-138 55 -57 138 -99 198 -97 40 0 127 33 139 52 8 14 -23 11 -63 -6 -19 -8
-37 -15 -39 -15 -2 0 -4 7 -4 15 0 8 -9 15 -20 15 -23 0 -26 -10 -7 -29 10
-11 6 -12 -23 -6 -50 10 -57 17 -29 28 23 9 23 9 4 17 -43 16 -88 22 -81 11 4
-6 11 -9 16 -6 4 3 13 -2 20 -10 15 -18 9 -19 -25 -3 -14 6 -25 17 -25 25 0 7
-7 13 -15 13 -17 0 -85 58 -85 72 0 6 19 34 43 62 24 28 62 79 85 113 53 78
154 279 150 296 -2 8 -23 -29 -48 -81z"/>
<path d="M3310 3514 c-37 -16 -70 -42 -70 -56 0 -4 19 5 42 22 46 34 74 37
103 12 39 -33 55 -66 55 -115 0 -30 4 -46 10 -42 6 3 10 25 10 49 0 46 -40
115 -79 135 -25 14 -29 13 -71 -5z"/>
<path d="M2932 3458 c-20 -20 -15 -56 9 -63 30 -10 68 28 53 53 -14 21 -45 27
-62 10z"/>
<path d="M3262 3404 c-21 -38 20 -77 63 -60 18 7 20 47 3 64 -17 17 -55 15
-66 -4z"/>
<path d="M3230 3307 c0 -19 69 -77 90 -76 10 0 7 6 -10 17 -14 9 -37 30 -52
45 -19 20 -28 24 -28 14z"/>
<path d="M2683 2973 c-26 -10 -12 -19 22 -15 19 2 35 8 35 13 0 9 -36 11 -57
2z"/>
<path d="M3424 2942 c15 -18 13 -21 -37 -68 -79 -73 -155 -124 -183 -124 -14
0 -22 -4 -19 -10 11 -18 31 -11 91 30 32 21 60 37 62 35 7 -6 -35 -56 -79 -93
l-40 -35 -84 7 c-91 7 -198 29 -253 52 -43 18 -39 18 -46 -11 -5 -19 -13 -25
-34 -25 -20 0 -12 -7 36 -26 35 -14 104 -50 154 -80 125 -73 153 -74 221 -1
45 48 178 227 215 289 21 36 41 42 63 22 11 -10 19 -13 19 -7 0 13 -71 63 -90
63 -10 0 -9 -5 4 -18z"/>
<path d="M2721 2940 c-1 -46 88 -165 104 -140 8 13 93 13 147 0 24 -6 70 -17
103 -24 33 -8 69 -17 80 -21 11 -3 8 1 -7 10 -39 22 -182 51 -287 58 -57 4
-68 8 -88 33 -13 16 -23 36 -23 45 0 8 -7 24 -15 35 -11 14 -14 15 -14 4z"/>
<path d="M3652 2887 c-18 -49 -15 -67 9 -67 17 0 19 3 10 14 -8 9 -10 28 -5
50 8 45 2 46 -14 3z"/>
<path d="M2756 2652 c-3 -5 -8 -29 -11 -53 l-5 -44 14 50 c14 48 15 67 2 47z"/>
<path d="M3455 2380 c-3 -5 -1 -10 4 -10 6 0 11 5 11 10 0 6 -2 10 -4 10 -3 0
-8 -4 -11 -10z"/>
<path d="M2648 2333 c7 -3 16 -2 19 1 4 3 -2 6 -13 5 -11 0 -14 -3 -6 -6z"/>
<path d="M3400 2283 c0 -5 8 -17 17 -28 14 -18 15 -18 9 -2 -3 10 -6 23 -6 28
0 5 -4 9 -10 9 -5 0 -10 -3 -10 -7z"/>
<path d="M3365 2234 c-11 -17 -13 -25 -4 -22 16 5 44 48 31 48 -5 0 -17 -12
-27 -26z"/>
<path d="M3020 2239 c26 -17 70 -40 70 -35 0 5 -69 46 -78 46 -4 0 0 -5 8 -11z"/>
<path d="M3314 2169 c-19 -22 -19 -22 3 -10 24 12 39 31 25 31 -5 0 -17 -10
-28 -21z"/>
<path d="M2975 2130 c3 -5 8 -10 11 -10 2 0 4 5 4 10 0 6 -5 10 -11 10 -5 0
-7 -4 -4 -10z"/>
<path d="M2900 2104 c0 -6 7 -19 16 -30 14 -18 14 -18 3 6 -14 31 -19 36 -19
24z"/>
<path d="M3920 2980 c0 -5 5 -10 10 -10 6 0 10 5 10 10 0 6 -4 10 -10 10 -5 0
-10 -4 -10 -10z"/>
<path d="M3910 2870 c0 -5 4 -10 9 -10 6 0 13 5 16 10 3 6 -1 10 -9 10 -9 0
-16 -4 -16 -10z"/>
<path d="M1720 2630 c-13 -8 -13 -11 1 -26 19 -18 59 -11 59 11 0 22 -35 31
-60 15z"/>
<path d="M1707 2203 c-12 -12 -7 -31 10 -37 15 -6 53 18 42 28 -10 9 -46 16
-52 9z"/>
<path d="M675 2040 c3 -5 13 -10 21 -10 8 0 12 5 9 10 -3 6 -13 10 -21 10 -8
0 -12 -4 -9 -10z"/>
<path d="M622 734 c-18 -12 -20 -19 -12 -35 14 -24 32 -24 61 1 24 20 24 20 5
35 -24 19 -26 19 -54 -1z"/>
<path d="M3630 2210 c0 -5 5 -10 10 -10 6 0 10 5 10 10 0 6 -4 10 -10 10 -5 0
-10 -4 -10 -10z"/>
<path d="M3650 2153 c0 -24 -4 -28 -30 -29 -23 -1 -30 3 -30 17 0 18 -1 18
-20 2 -26 -23 -25 -30 4 -37 16 -4 29 -20 41 -48 17 -41 18 -42 26 -19 7 17 6
27 -3 33 -14 8 -13 9 18 13 17 2 20 -2 16 -21 -2 -13 1 -24 7 -24 6 0 8 7 4
17 -5 12 -2 15 10 10 11 -4 17 -1 17 8 0 8 -4 15 -8 15 -11 0 -32 46 -32 70 0
11 -4 20 -10 20 -5 0 -10 -12 -10 -27z m-10 -54 c0 -5 -7 -9 -15 -9 -8 0 -15
7 -15 15 0 9 6 12 15 9 8 -4 15 -10 15 -15z"/>
<path d="M3615 2160 c-3 -5 -2 -10 4 -10 5 0 13 5 16 10 3 6 2 10 -4 10 -5 0
-13 -4 -16 -10z"/>
<path d="M1205 2140 c-7 -12 2 -12 30 0 19 8 19 9 -2 9 -12 1 -25 -3 -28 -9z"/>
<path d="M1470 2110 c0 -5 5 -10 11 -10 5 0 7 5 4 10 -3 6 -8 10 -11 10 -2 0
-4 -4 -4 -10z"/>
<path d="M3523 2107 c4 -10 7 -24 7 -30 0 -8 3 -8 11 0 9 9 7 16 -7 30 -17 17
-18 17 -11 0z"/>
<path d="M3376 2101 c-4 -6 -2 -11 3 -11 6 0 11 -7 11 -15 0 -8 5 -15 10 -15
6 0 10 2 10 4 0 2 3 12 7 22 5 12 3 15 -6 9 -8 -4 -16 -2 -21 5 -5 9 -9 9 -14
1z"/>
<path d="M3497 2069 c-9 -6 -17 -18 -17 -27 0 -14 4 -13 22 6 24 24 22 36 -5
21z"/>
<path d="M3690 2024 c0 -10 27 -33 33 -28 9 10 -4 34 -19 34 -8 0 -14 -3 -14
-6z"/>
<path d="M3383 2005 c-18 -20 -16 -35 6 -35 14 0 17 6 13 25 -2 14 -5 25 -6
25 0 -1 -7 -7 -13 -15z"/>
<path d="M1127 1804 c6 -15 23 -19 23 -5 0 5 -7 11 -14 14 -10 4 -13 1 -9 -9z"/>
<path d="M3760 1790 c0 -21 17 -46 25 -38 4 4 0 17 -9 30 -10 14 -16 17 -16 8z"/>
<path d="M810 1740 c-12 -8 -11 -10 7 -10 12 0 25 5 28 10 8 13 -15 13 -35 0z"/>
<path d="M1721 1693 c10 -21 19 -56 19 -80 0 -23 4 -44 8 -47 5 -3 7 21 4 52
-5 57 -25 112 -41 112 -5 0 0 -17 10 -37z"/>
<path d="M3860 1632 c0 -12 39 -60 40 -49 0 5 -9 20 -20 34 -11 14 -20 21 -20
15z"/>
<path d="M3955 1611 c-6 -11 13 -26 22 -17 4 3 1 6 -6 6 -7 0 -9 5 -6 10 3 6
4 10 1 10 -3 0 -7 -4 -11 -9z"/>
<path d="M654 1585 c14 -8 33 -12 41 -8 8 3 15 1 15 -5 0 -5 12 -7 26 -4 39 7
16 19 -50 25 -56 6 -58 5 -32 -8z"/>
<path d="M1579 1585 c-8 -7 14 -75 23 -75 10 0 9 8 -6 48 -6 18 -14 31 -17 27z"/>
<path d="M770 1571 c0 -15 15 -21 38 -14 32 8 27 23 -8 23 -16 0 -30 -4 -30
-9z"/>
<path d="M3930 1570 c0 -5 5 -10 11 -10 5 0 7 5 4 10 -3 6 -8 10 -11 10 -2 0
-4 -4 -4 -10z"/>
<path d="M3998 1565 c13 -9 26 -14 29 -11 8 8 3 12 -27 21 l-25 7 23 -17z"/>
<path d="M860 1560 c36 -11 52 -11 45 0 -3 6 -21 10 -38 9 -31 -1 -31 -1 -7
-9z"/>
<path d="M3911 1565 c-2 -20 30 -55 49 -55 19 0 19 1 3 20 -10 11 -23 20 -29
20 -7 0 -15 6 -17 13 -3 6 -6 7 -6 2z"/>
<path d="M920 1550 c0 -5 7 -10 16 -10 8 0 12 5 9 10 -3 6 -10 10 -16 10 -5 0
-9 -4 -9 -10z"/>
<path d="M3970 1541 c0 -6 5 -13 11 -17 8 -4 8 -9 0 -17 -18 -18 -12 -28 9
-15 24 15 26 43 4 52 -21 8 -24 8 -24 -3z"/>
<path d="M990 1522 c0 -12 39 -42 55 -42 7 0 17 5 20 10 3 6 -5 10 -18 10 -14
0 -27 7 -31 15 -6 15 -26 21 -26 7z"/>
<path d="M153 1461 c-21 -18 -21 -19 -4 -35 24 -22 58 -20 70 3 8 14 6 22 -8
35 -22 20 -31 20 -58 -3z"/>
<path d="M3990 1463 c0 -11 50 -57 55 -51 3 3 -5 17 -18 31 -22 27 -37 34 -37
20z"/>
<path d="M1105 1449 c-3 -4 3 -13 14 -18 26 -14 44 -14 35 1 -4 7 -3 8 5 4 9
-6 9 -11 1 -21 -14 -16 3 -30 27 -21 10 4 14 2 10 -7 -3 -8 -1 -20 3 -28 7
-10 11 -6 19 15 14 34 6 49 -22 41 -16 -5 -18 -4 -8 3 10 7 10 11 1 17 -22 13
-80 23 -85 14z"/>
<path d="M360 1364 c-10 -11 -10 -17 0 -29 14 -17 20 -18 38 -7 15 10 7 38
-13 46 -7 2 -19 -2 -25 -10z"/>
<path d="M4049 1303 c-33 -87 -102 -204 -163 -278 -65 -79 -75 -94 -41 -65 73
63 127 140 180 255 36 78 49 115 40 115 -3 0 -10 -12 -16 -27z"/>
<path d="M220 1301 c0 -16 6 -21 26 -21 33 0 30 33 -4 38 -17 3 -22 -2 -22
-17z"/>
<path d="M2612 1080 c0 -14 2 -19 5 -12 2 6 2 18 0 25 -3 6 -5 1 -5 -13z"/>
<path d="M1387 1023 c-13 -13 -7 -32 8 -27 10 4 15 0 15 -16 0 -11 -4 -19 -8
-16 -4 2 -9 -9 -10 -26 l-3 -32 26 28 26 28 -22 34 c-22 37 -23 37 -32 27z"/>
<path d="M1460 895 c0 -9 6 -12 15 -9 8 4 17 -1 21 -10 3 -9 10 -14 14 -11 4
3 10 -2 14 -10 3 -8 12 -15 21 -15 26 0 17 16 -20 33 -19 9 -35 21 -35 27 0 5
-7 10 -15 10 -8 0 -15 -7 -15 -15z"/>
<path d="M1502 828 c3 -7 19 -18 38 -26 l34 -14 -25 26 c-25 27 -54 35 -47 14z"/>
<path d="M1620 796 c0 -7 6 -19 14 -25 19 -16 32 5 16 24 -16 19 -30 19 -30 1z"/>
<path d="M1677 774 c-4 -4 -7 -14 -7 -23 0 -11 3 -12 11 -4 6 6 10 16 7 23 -2
6 -7 8 -11 4z"/>
<path d="M1695 683 c4 -21 11 -39 16 -41 5 -2 9 -13 9 -25 0 -11 3 -18 6 -15
8 9 -19 118 -29 118 -5 0 -6 -17 -2 -37z"/>
<path d="M1730 555 c0 -8 2 -15 4 -15 2 0 6 7 10 15 3 8 1 15 -4 15 -6 0 -10
-7 -10 -15z"/>
<path d="M1710 517 c0 -36 24 -128 36 -138 16 -13 18 -1 5 21 -12 18 -5 31 14
23 8 -3 15 -15 15 -27 0 -11 5 -28 10 -36 7 -11 10 -7 10 17 0 17 -4 35 -10
38 -5 3 -10 15 -10 26 0 23 -15 25 -24 3 -8 -21 -28 -7 -21 16 7 22 -4 70 -16
70 -5 0 -9 -6 -9 -13z"/>
<path d="M880 516 c0 -2 7 -7 16 -10 8 -3 12 -2 9 4 -6 10 -25 14 -25 6z"/>
<path d="M1750 511 c0 -5 5 -13 10 -16 6 -3 10 -2 10 4 0 5 -4 13 -10 16 -5 3
-10 2 -10 -4z"/>
<path d="M957 499 c7 -7 15 -10 18 -7 3 3 -2 9 -12 12 -14 6 -15 5 -6 -5z"/>
<path d="M880 480 c0 -5 11 -10 25 -10 14 0 25 -4 25 -10 0 -5 -3 -10 -7 -10
-9 0 -33 -48 -33 -64 0 -5 10 0 23 12 13 12 31 22 40 22 9 0 35 7 57 16 37 15
39 18 23 30 -20 15 -47 19 -39 6 8 -13 -7 -29 -36 -36 -17 -4 -28 -2 -28 4 0
5 4 10 9 10 6 0 9 9 8 20 -1 16 -8 20 -34 20 -18 0 -33 -4 -33 -10z"/>
<path d="M885 303 c-4 -15 -8 -36 -10 -45 -1 -9 2 -19 9 -22 8 -3 8 -7 -1 -13
-17 -12 -5 -56 13 -49 8 3 14 1 14 -4 0 -6 -8 -10 -17 -10 -15 0 -16 -2 -3
-10 22 -14 43 -12 34 3 -6 9 -4 9 8 -1 21 -17 30 -2 18 34 -5 16 -13 54 -17
84 -6 40 -13 56 -25 58 -12 2 -19 -5 -23 -25z m35 -8 c0 -14 -6 -25 -14 -25
-9 0 -12 8 -8 25 2 14 8 25 13 25 5 0 9 -11 9 -25z"/>
<path d="M1810 311 c0 -12 5 -21 10 -21 6 0 10 6 10 14 0 8 -4 18 -10 21 -5 3
-10 -3 -10 -14z"/>
<path d="M1800 258 c0 -10 5 -18 10 -18 6 0 10 -10 11 -22 1 -22 1 -22 9 2 5
17 8 19 9 8 1 -10 6 -18 11 -18 14 0 12 11 -5 34 -10 13 -15 15 -15 6 0 -9 -5
-7 -15 6 -13 17 -14 17 -15 2z"/>
<path d="M851 194 c0 -11 3 -14 6 -6 3 7 2 16 -1 19 -3 4 -6 -2 -5 -13z"/>
<path d="M1850 185 c6 -8 9 -18 6 -23 -3 -6 1 -15 9 -22 12 -10 15 -9 15 4 0
24 -18 56 -32 56 -7 0 -6 -5 2 -15z"/>
<path d="M861 144 c0 -11 3 -14 6 -6 3 7 2 16 -1 19 -3 4 -6 -2 -5 -13z"/>
<path d="M918 122 c-22 -4 -23 -18 -4 -25 8 -3 17 1 20 10 8 19 6 20 -16 15z"/>
<path d="M949 74 c-7 -57 -5 -74 7 -74 9 0 12 11 10 35 -2 32 -15 60 -17 39z"/>
<path d="M1860 33 c0 -5 5 -15 10 -23 8 -12 10 -11 10 8 0 12 -4 22 -10 22 -5
0 -10 -3 -10 -7z"/>
</g>
</svg>
